<?xml version="1.0" encoding="utf-8"?>
<!-- Generator: Adobe Illustrator 22.0.1, SVG Export Plug-In . SVG Version: 6.00 Build 0)  -->
<svg version="1.1" id="Layer_1" xmlns="http://www.w3.org/2000/svg" xmlns:xlink="http://www.w3.org/1999/xlink" x="0px" y="0px"
	 viewBox="0 0 630 636.1" style="enable-background:new 0 0 630 636.1;" xml:space="preserve">
<style type="text/css">
	.st0{fill:#FFFFFF;stroke:#000000;stroke-width:2;stroke-miterlimit:10;}
	.st1{fill:none;}
	.st3{font-size:18px; font-family: 'Arial';}
	.st4{fill:none;stroke:#000000;stroke-miterlimit:10;}
	.st5{fill:none;stroke:#000000;stroke-width:2;stroke-miterlimit:10;}
</style>
<line class="st0" x1="315" y1="18.9" x2="314" y2="301.9"/>
<line class="st0" x1="314" y1="333.9" x2="315" y2="618.9"/>
<line class="st0" x1="102" y1="529.9" x2="302.8" y2="329.1"/>
<line class="st0" x1="298" y1="317.9" x2="15" y2="318.9"/>
<line class="st0" x1="615" y1="318.9" x2="330" y2="317.9"/>
<line class="st0" x1="325.2" y1="306.7" x2="526" y2="105.9"/>
<line class="st0" x1="102" y1="105.9" x2="302.8" y2="306.7"/>
<line class="st0" x1="325.2" y1="329.1" x2="527" y2="530.9"/>
<rect x="309.2" y="0.2" class="st1" width="10.7" height="13.7"/>
<text transform="matrix(1 0 0 1 309.4839 13.7451)" class="st3">1</text>
<rect x="90.4" y="530.2" class="st1" width="10.6" height="13.7"/>
<text transform="matrix(1 0 0 1 90.6416 543.7451)" class="st3">8</text>
<rect x="527.4" y="91.2" class="st1" width="10.6" height="13.7"/>
<text transform="matrix(1 0 0 1 527.6416 104.7451)" class="st3">7</text>
<rect x="526.4" y="531.2" class="st1" width="11.6" height="14.7"/>
<text transform="matrix(1 0 0 1 527.1416 544.7451)" class="st3">6</text>
<rect x="89.4" y="91.2" class="st1" width="10.6" height="13.7"/>
<text transform="matrix(1 0 0 1 89.6416 104.7451)" class="st3">5</text>
<rect x="619.4" y="312.2" class="st1" width="10.6" height="13.7"/>
<text transform="matrix(1 0 0 1 619.6416 325.7451)" class="st3">4</text>
<rect x="0" y="312.2" class="st1" width="11" height="13.7"/>
<text transform="matrix(1 0 0 1 0.4463 325.7451)" class="st3">3</text>
<rect x="309.4" y="622.2" class="st1" width="10.6" height="13.7"/>
<text transform="matrix(1 0 0 1 309.6416 635.7451)" class="st3">2</text>
<path class="st4" d="M309.9,15.8"/>
<path class="st5" d="M315.9,24.5"/>
</svg>