<?xml version="1.0" standalone="no"?>
<!DOCTYPE svg PUBLIC "-//W3C//DTD SVG 20010904//EN"
        "http://www.w3.org/TR/2001/REC-SVG-20010904/DTD/svg10.dtd">
<svg version="1.0" xmlns="http://www.w3.org/2000/svg"
     width="800.000000pt" height="800.000000pt" viewBox="0 0 800.000000 800.000000"
     preserveAspectRatio="xMidYMid meet">
    <metadata>
        Created by potrace 1.11, written by Peter Selinger 2001-2013
    </metadata>
    <g transform="translate(0.000000,800.000000) scale(0.100000,-0.100000)"
       fill="#000000" stroke="none">
        <path d="M0 4000 l0 -4000 4000 0 4000 0 0 4000 0 4000 -4000 0 -4000 0 0
-4000z m6025 -1229 c133 -66 204 -210 205 -417 l0 -82 -42 -5 c-24 -4 -74 -9
-113 -12 -38 -3 -80 -8 -91 -10 -21 -5 -22 0 -28 93 -4 53 -12 111 -17 129
-13 42 -62 83 -100 83 -86 0 -123 -65 -117 -207 4 -116 25 -160 210 -435 182
-271 211 -318 249 -410 46 -111 69 -220 69 -328 0 -229 -86 -355 -275 -405
-109 -28 -248 -14 -343 34 -53 27 -126 104 -156 167 -36 72 -46 135 -46 275
l0 119 43 0 c23 0 85 3 137 6 l95 7 1 -111 c1 -173 37 -240 132 -250 41 -4 52
0 80 23 42 35 55 88 50 200 -5 120 -25 160 -230 465 -227 337 -281 453 -295
637 -22 292 152 481 430 469 74 -3 98 -9 152 -35z m-4907 -878 l-3 -888 -28
-57 c-53 -108 -143 -155 -314 -165 l-103 -6 0 141 0 142 38 0 c47 0 103 28
119 60 10 19 13 209 13 843 l0 817 140 0 141 0 -3 -887z m532 -113 l0 -1000
-140 0 -140 0 0 1000 0 1000 140 0 140 0 0 -1000z m520 165 c0 -915 -2 -888
59 -919 48 -25 96 -20 133 13 l33 29 3 856 2 856 140 0 141 0 -3 -872 -3 -873
-23 -56 c-75 -187 -314 -278 -522 -200 -107 40 -176 110 -216 216 -18 47 -19
98 -22 918 l-3 867 141 0 140 0 0 -835z m1628 -52 l-3 -888 -28 -57 c-53 -108
-143 -155 -314 -165 l-103 -6 0 141 0 142 38 0 c47 0 103 28 119 60 10 19 13
209 13 843 l0 817 140 0 141 0 -3 -887z m532 -113 l0 -1000 -140 0 -140 0 0
1000 0 1000 140 0 140 0 0 -1000z m950 870 l0 -130 -135 0 -135 0 0 -870 0
-870 -140 0 -140 0 0 870 0 870 -130 0 -130 0 0 130 0 130 405 0 405 0 0 -130z
m1450 -705 c0 -915 -2 -888 59 -919 48 -25 96 -20 133 13 l33 29 3 856 2 856
140 0 141 0 -3 -872 -3 -873 -23 -56 c-75 -187 -314 -278 -522 -200 -107 40
-176 110 -216 216 -18 47 -19 98 -22 918 l-3 867 141 0 140 0 0 -835z"/>
    </g>
</svg>
