<?xml version="1.0" encoding="utf-8"?>
<!-- Generator: Adobe Illustrator 22.0.1, SVG Export Plug-In . SVG Version: 6.00 Build 0)  -->
<svg version="1.1" id="Layer_1" xmlns="http://www.w3.org/2000/svg"  x="0px" y="0px"
	 viewBox="0 0 2166.5 1072.3" style="enable-background:new 0 0 2166.5 1072.3;" xml:space="preserve">
<style type="text/css">
	.st0{fill:#FE0002;}
	.st1{fill:none;}
	.st2{enable-background:new    ;}
	.st3{fill:#FFFFFF;}
</style>
<g id="Layer_2_1_">
	<g>
		<rect x="348.3" class="st0" width="800" height="800"/>
	</g>
	<rect x="348.3" y="522" class="st1" width="800" height="278"/>
	<g class="st2">
		<path class="st3" d="M435.6,522.1h28v152.1c0,9.2-0.2,15.7-0.6,19.5c-0.4,3.8-1.2,7.2-2.3,10.3c-4.4,10.2-12.8,16-25.3,17.4
			c-4.4,0.5-10.2,0.7-17.3,0.7v-27.7c1.1,0,1.8,0,2.2,0c5.3,0,9.1-1,11.4-2.9c2.6-2.3,4-7.1,4-14.2V522.1z"/>
		<path class="st3" d="M515.7,522.1v200h-28v-200H515.7z"/>
		<path class="st3" d="M567.7,522.1v160.7c0,5.3,0.7,9,2.1,11.3c2.1,3.3,5.3,5,9.5,5c4.3,0,7.5-1.7,9.7-5c1.4-2.1,2.1-5.9,2.1-11.3
			V522.1h28v149.3c0,13.4-0.5,22.1-1.6,26.1c-2.5,10.4-8.4,17.9-17.7,22.7c-6.1,3.2-12.8,4.8-20.2,4.8c-9.2,0-17.2-2.3-24.2-7
			c-8.2-5.6-13.1-13.7-14.8-24.5c-0.5-3.3-0.7-10.7-0.7-22.1V522.1H567.7z"/>
		<path class="st3" d="M703.5,522.1h28v152.1c0,9.2-0.2,15.7-0.6,19.5c-0.4,3.8-1.2,7.2-2.3,10.3c-4.4,10.2-12.8,16-25.3,17.4
			c-4.4,0.5-10.2,0.7-17.3,0.7v-27.7c1.1,0,1.8,0,2.2,0c5.3,0,9.1-1,11.4-2.9c2.6-2.3,4-7.1,4-14.2V522.1z"/>
		<path class="st3" d="M783.6,522.1v200h-28v-200H783.6z"/>
		<path class="st3" d="M823.9,722.1v-174h-26.2v-25.9h81.4v25.9h-27.2v174H823.9z"/>
		<path class="st3" d="M894.7,664.4l27.5-1.5c-0.2,7.4-0.2,13.1,0,17.1c0.7,12.8,5.4,19.2,14.2,19.2c8.4,0,12.6-6.6,12.6-19.9
			c0-6.5-1.6-13.2-4.7-20.1c-2.1-4.4-6.2-10.8-12.5-19.2l-13.8-20.5c-7.4-11.1-12.7-20.4-16-27.7c-4.4-10.1-6.6-19.9-6.6-29.6
			c0-12.7,3.4-22.9,10.3-30.5c7.5-8.5,17.8-12.7,30.8-12.7c13.3,0,23.2,4.8,29.9,14.4c5.3,7.4,8,17.3,8.2,29.6c0,1,0,4.3,0,10.1
			l-27.4,2.8c0-8.7-0.2-14.8-0.7-18.3c-1.2-8.4-5-12.6-11.6-12.6c-7.8,0-11.7,6.3-11.7,18.8c0,7,1.6,13.5,4.8,19.5
			c2,3.6,6.9,11.4,14.8,23.3l14.1,20.7c13.4,19.5,20.1,38.3,20.1,56.4c0,10.7-2.3,19.5-6.9,26.4c-6.7,10.2-18,15.2-33.7,15.2
			c-14.8,0-26-5.1-33.4-15.2c-4-5.4-6.5-11.1-7.6-17.1c-0.8-4.9-1.2-10.8-1.2-17.9C894.2,671.7,894.4,668.2,894.7,664.4z"/>
		<path class="st3" d="M1023.9,522.1v160.7c0,5.3,0.7,9,2.1,11.3c2.1,3.3,5.3,5,9.5,5c4.3,0,7.5-1.7,9.7-5c1.4-2.1,2.1-5.9,2.1-11.3
			V522.1h28v149.3c0,13.4-0.5,22.1-1.6,26.1c-2.5,10.4-8.4,17.9-17.7,22.7c-6.1,3.2-12.8,4.8-20.2,4.8c-9.2,0-17.2-2.3-24.2-7
			c-8.2-5.6-13.1-13.7-14.8-24.5c-0.5-3.3-0.7-10.7-0.7-22.1V522.1H1023.9z"/>
	</g>
	<rect x="1212.3" y="522" class="st1" width="986" height="278"/>
	<g class="st2">
		<path d="M1224.4,522.1h67.4v25.9h-39.4v56.2h27.7v25.9h-27.7v91.8h-28V522.1z"/>
		<path d="M1389.7,572.8v98.3c0,13.4-0.5,22.1-1.6,26.2c-2.5,10.4-8.4,18-17.7,22.9c-6.2,3.2-12.9,4.8-20.2,4.8
			c-9.2,0-17.2-2.3-24.2-7c-8.2-5.7-13.1-13.9-14.8-24.8c-0.5-3.3-0.7-10.7-0.7-22.1v-98.3c0-13.4,0.5-22.1,1.6-26.1
			c2.5-10.3,8.4-17.9,17.7-22.7c6.2-3.2,12.9-4.8,20.4-4.8c9.1,0,17.1,2.3,24,7c8.2,5.6,13.1,13.7,14.8,24.5
			C1389.5,554,1389.7,561.4,1389.7,572.8z M1361.8,682.8V561.4c0-5.4-0.7-9.1-2.1-11.3c-2.1-3.3-5.4-5-9.7-5c-4.2,0-7.4,1.7-9.5,5
			c-1.4,2.1-2.1,5.9-2.1,11.3v121.4c0,5.4,0.7,9.1,2.1,11.3c2.1,3.3,5.3,5,9.5,5c4.3,0,7.5-1.7,9.5-5
			C1361,691.9,1361.8,688.1,1361.8,682.8z"/>
		<path d="M1441.3,522.1v160.7c0,5.3,0.7,9,2.1,11.3c2.1,3.3,5.3,5,9.5,5c4.3,0,7.5-1.7,9.7-5c1.4-2.1,2.1-5.9,2.1-11.3V522.1h28
			v149.3c0,13.4-0.5,22.1-1.6,26.1c-2.5,10.4-8.4,17.9-17.7,22.7c-6.1,3.2-12.8,4.8-20.2,4.8c-9.2,0-17.2-2.3-24.2-7
			c-8.2-5.6-13.1-13.7-14.8-24.5c-0.5-3.3-0.7-10.7-0.7-22.1V522.1H1441.3z"/>
		<path d="M1605.4,522.1v200h-28l-32.8-104.9v104.9h-28v-200h24.2l36.6,117.8V522.1H1605.4z"/>
		<path d="M1629.4,522.1h29.9c32.3-1.2,48.8,14.2,49.4,46v108c-0.6,31.8-17,47.2-49.4,46h-29.9V522.1z M1657.4,696.2h3.5
			c8.2,0,13.7-1.8,16.6-5.4c2.1-2.7,3.1-7.6,3.2-14.6v-108c-0.1-8-1.8-13.4-5-16.3c-2.9-2.4-7.9-3.7-14.8-3.8h-3.5V696.2z"/>
		<path d="M1759.2,677.1l-5,45h-27l27.2-200h36.2l26.1,200h-27.5l-5-45H1759.2z M1781.3,651.2l-9.7-92.9l-9.5,92.9H1781.3z"/>
		<path d="M1848.4,722.1v-174h-26.2v-25.9h81.4v25.9h-27.2v174H1848.4z"/>
		<path d="M1945.5,522.1v200h-28v-200H1945.5z"/>
		<path d="M2048.3,572.8v98.3c0,13.4-0.5,22.1-1.6,26.2c-2.5,10.4-8.4,18-17.7,22.9c-6.2,3.2-12.9,4.8-20.2,4.8
			c-9.2,0-17.2-2.3-24.2-7c-8.2-5.7-13.1-13.9-14.8-24.8c-0.5-3.3-0.7-10.7-0.7-22.1v-98.3c0-13.4,0.5-22.1,1.6-26.1
			c2.5-10.3,8.4-17.9,17.7-22.7c6.2-3.2,12.9-4.8,20.4-4.8c9.1,0,17.1,2.3,24,7c8.2,5.6,13.1,13.7,14.8,24.5
			C2048.1,554,2048.3,561.4,2048.3,572.8z M2020.3,682.8V561.4c0-5.4-0.7-9.1-2.1-11.3c-2.1-3.3-5.4-5-9.7-5c-4.2,0-7.4,1.7-9.5,5
			c-1.4,2.1-2.1,5.9-2.1,11.3v121.4c0,5.4,0.7,9.1,2.1,11.3c2.1,3.3,5.3,5,9.5,5c4.3,0,7.5-1.7,9.5-5
			C2019.6,691.9,2020.3,688.1,2020.3,682.8z"/>
		<path d="M2160.7,522.1v200h-28l-32.8-104.9v104.9h-28v-200h24.2l36.6,117.8V522.1H2160.7z"/>
	</g>
	<rect x="2.3" y="522" class="st1" width="282" height="278"/>
	<g class="st2">
		<path d="M31.6,722.1v-174H5.4v-25.9h81.4v25.9H59.6v174H31.6z"/>
		<path d="M151.4,630.3h-22.7v91.8h-28v-200h28v82.2h22.7v-82.2h28v200h-28V630.3z"/>
		<path d="M203.3,522.1h67.4v25.9h-39.4v56.2H259v25.9h-27.7v65.9h41.9v25.9h-69.9V522.1z"/>
	</g>
	<rect x="348.3" y="863" class="st1" width="800" height="206"/>
	<g class="st2">
		<path d="M356.4,1005.4l27.5-1.5c-0.2,7.4-0.2,13.1,0,17.1c0.7,12.8,5.4,19.2,14.2,19.2c8.4,0,12.6-6.6,12.6-19.9
			c0-6.5-1.6-13.2-4.7-20.1c-2.1-4.4-6.2-10.8-12.5-19.2l-13.8-20.5c-7.4-11.1-12.7-20.4-16-27.7c-4.4-10.1-6.6-19.9-6.6-29.6
			c0-12.7,3.4-22.9,10.3-30.5c7.5-8.5,17.8-12.7,30.8-12.7c13.3,0,23.2,4.8,29.9,14.4c5.3,7.4,8,17.3,8.2,29.6c0,1,0,4.3,0,10.1
			l-27.4,2.8c0-8.7-0.2-14.8-0.7-18.3c-1.2-8.4-5-12.6-11.6-12.6c-7.8,0-11.7,6.3-11.7,18.8c0,7,1.6,13.5,4.8,19.5
			c2,3.6,6.9,11.4,14.8,23.3l14.1,20.7c13.4,19.5,20.1,38.3,20.1,56.4c0,10.7-2.3,19.5-6.9,26.4c-6.7,10.2-18,15.2-33.7,15.2
			c-14.8,0-26-5.1-33.4-15.2c-4-5.4-6.5-11.1-7.6-17.1c-0.8-4.9-1.2-10.8-1.2-17.9C356,1012.7,356.1,1009.2,356.4,1005.4z"/>
		<path d="M484.5,979.9l-31.1-116.7h30.2l15.2,73.7l15.4-73.7h29.3l-31.1,116.7v83.2h-28V979.9z"/>
		<path d="M562.6,1063.1v-200h28V1037H630v26.1H562.6z"/>
		<path d="M650,1063.1v-200h28V1037h39.4v26.1H650z"/>
		<path d="M770.2,1018.1l-5,45h-27l27.2-200h36.2l26.1,200h-27.5l-5-45H770.2z M792.3,992.2l-9.7-92.9l-9.5,92.9H792.3z"/>
		<path d="M911.5,957.8c7.1,2.7,12.3,7,15.5,12.7c2.6,4.8,4.2,9.9,4.8,15.2c0.7,5.7,1,11.9,1,18.8c0,15.9-1.4,27.2-4.2,34
			c-4,9.9-10.8,16.7-20.4,20.4c-7.1,2.8-17,4.2-29.6,4.2h-28v-200h25.2c13.9,0,23.4,1.1,28.6,3.4c10.3,4.4,17.4,11.7,21.2,22
			c2.4,6.3,3.7,14.6,3.7,24.6c0,14.6-1.9,25.5-5.7,32.8C921.5,950,917.4,954,911.5,957.8z M878.7,946.1h4c8.6,0,14.3-2.4,17-7.3
			c1.8-3.2,2.6-11,2.6-23.3c0-7.6-0.6-13.3-1.8-17c-2.1-6.2-8-9.4-17.9-9.4h-4V946.1z M878.7,1037.2h2.6c9.1,0,15.2-1.9,18.5-5.6
			c3.4-3.9,5.1-12.9,5.1-27c0-10.2-0.6-17.1-1.9-20.9c-1.5-4.4-4-7.5-7.5-9.2c-3.1-1.6-7.9-2.3-14.2-2.3h-2.6V1037.2z"/>
		<path d="M986.8,863.1v160.7c0,5.3,0.7,9,2.1,11.3c2.1,3.3,5.3,5,9.5,5c4.3,0,7.5-1.7,9.7-5c1.4-2.1,2.1-5.9,2.1-11.3V863.1h28
			v149.3c0,13.4-0.5,22.1-1.6,26.1c-2.5,10.4-8.4,17.9-17.7,22.7c-6.1,3.2-12.8,4.8-20.2,4.8c-9.2,0-17.2-2.3-24.2-7
			c-8.2-5.6-13.1-13.7-14.8-24.5c-0.5-3.3-0.7-10.7-0.7-22.1V863.1H986.8z"/>
	</g>
	<g class="st2">
		<path d="M1059.1,1005.4l27.5-1.5c-0.2,7.4-0.2,13.1,0,17.1c0.7,12.8,5.4,19.2,14.2,19.2c8.4,0,12.6-6.6,12.6-19.9
			c0-6.5-1.6-13.2-4.7-20.1c-2.1-4.4-6.2-10.8-12.5-19.2l-13.8-20.5c-7.4-11.1-12.7-20.4-16-27.7c-4.4-10.1-6.6-19.9-6.6-29.6
			c0-12.7,3.4-22.9,10.3-30.5c7.5-8.5,17.8-12.7,30.8-12.7c13.3,0,23.2,4.8,29.9,14.4c5.3,7.4,8,17.3,8.2,29.6c0,1,0,4.3,0,10.1
			l-27.4,2.8c0-8.7-0.2-14.8-0.7-18.3c-1.2-8.4-5-12.6-11.6-12.6c-7.8,0-11.7,6.3-11.7,18.8c0,7,1.6,13.5,4.8,19.5
			c2,3.6,6.9,11.4,14.8,23.3l14.1,20.7c13.4,19.5,20.1,38.3,20.1,56.4c0,10.7-2.3,19.5-6.9,26.4c-6.7,10.2-18,15.2-33.7,15.2
			c-14.8,0-26-5.1-33.4-15.2c-4-5.4-6.5-11.1-7.6-17.1c-0.8-4.9-1.2-10.8-1.2-17.9C1058.7,1012.7,1058.8,1009.2,1059.1,1005.4z"/>
	</g>
</g>
<g id="Layer_1_1_">
</g>
</svg>
